<svg width="40" height="40" fill="none" xmlns="http://www.w3.org/2000/svg"><path d="M20 0h20v20c0 11.046-8.954 20-20 20S0 31.046 0 20 8.954 0 20 0Z" fill="#8643DC" fill-rule="evenodd"/><path d="M26 0h14v13c0 5.523-4.477 10-10 10H16V10c0-5.523 4.477-10 10-10Z" fill="#FF59C1" fill-rule="evenodd"/><path d="M14.425 28.417q2.419 1.942 6.396 1.942 3.962 0 6.377-1.933.327-.26.625-.557.224-.223.428-.463 2.077-2.44 2.077-6.65V9.002h-4.797v11.58q0 2.908-1.201 4.277-.225.255-.486.461-1.14.902-2.993.902-1.91 0-3.04-.938-1.64-1.362-1.64-4.702V9.001h-4.864v11.756q0 4.208 2.077 6.65.204.24.428.462.293.29.613.548Z" fill="#FFF" fill-rule="evenodd"/></svg>