<?xml version="1.0" encoding="UTF-8"?> <svg xmlns="http://www.w3.org/2000/svg" width="134" height="32" viewBox="0 0 134 32" fill="none"><g clip-path="url(#clip0_490_2541)"><g clip-path="url(#clip1_490_2541)"><path d="M15.5681 11.5062L25.4489 31.4835H31.1361L15.5681 0L0 31.4835H5.68721L15.5681 11.5062Z" fill="#0058A3"></path><path d="M15.5683 24.9802L11.3844 19.9625H5.66797L15.5683 31.513L25.4686 19.9625H19.7522L15.5683 24.9802Z" fill="#FFDE02"></path><path d="M64.2329 31.5425V16.6321H67.6676V17.98C68.1103 17.4586 68.592 17.0453 69.1028 16.7404C69.6623 16.4108 70.3628 16.2435 71.2045 16.2435C72.2067 16.2435 73.1067 16.4796 73.8997 16.9519L72.4986 20.1051C71.9391 19.751 71.3553 19.5739 70.7472 19.5739C69.8374 19.5739 69.1223 19.8444 68.6114 20.3905C67.979 21.0742 67.6676 22.2204 67.6676 23.8241V31.5474H64.2329V31.5425Z" fill="black"></path><path d="M84.5104 18.8606L81.9514 20.5626C81.4357 19.7116 80.7351 19.2885 79.8497 19.2885C79.4069 19.2885 79.0567 19.4164 78.7988 19.6772C78.5896 19.8887 78.4826 20.1494 78.4826 20.4544C78.4826 20.8086 78.6431 21.0939 78.974 21.3055C79.0421 21.3546 79.115 21.394 79.1832 21.4284C79.2513 21.4629 79.3826 21.5317 79.5675 21.6252C79.7524 21.7187 79.9421 21.8121 80.127 21.9105L81.8784 22.796C82.8611 23.2929 83.5471 23.7503 83.946 24.1783C84.6709 24.9113 85.0309 25.8312 85.0309 26.943C85.0309 28.2663 84.5979 29.3977 83.7368 30.3422C82.7346 31.454 81.353 32.0049 79.6015 32.0049C78.2929 32.0049 77.2323 31.6852 76.415 31.0506C75.5247 30.3914 74.8971 29.4813 74.5225 28.3253L77.3247 26.9774C77.5582 27.6612 77.8258 28.1334 78.1323 28.3942C78.5069 28.7729 79.008 28.9599 79.6405 28.9599C80.2729 28.9599 80.7156 28.7926 81.0416 28.463C81.3676 28.1334 81.533 27.7448 81.533 27.2922C81.533 26.8692 81.3821 26.4904 81.0756 26.1608C80.7497 25.8312 80.2583 25.5213 79.6064 25.2409L78.3464 24.6407C77.3636 24.1685 76.6874 23.7454 76.3128 23.3666C75.6122 22.6829 75.2619 21.8417 75.2619 20.8529C75.2619 19.6034 75.6706 18.5408 76.4879 17.6652C77.3734 16.7207 78.5799 16.2484 80.0978 16.2484C81.1486 16.2484 82.0584 16.5091 82.8319 17.0257C83.5325 17.4733 84.092 18.0882 84.5152 18.8655L84.5104 18.8606Z" fill="black"></path><path d="M97.4708 18.8606L94.9118 20.5626C94.3961 19.7116 93.6955 19.2885 92.8101 19.2885C92.3674 19.2885 92.0171 19.4164 91.7593 19.6772C91.5501 19.8887 91.443 20.1494 91.443 20.4544C91.443 20.8086 91.6036 21.0939 91.9344 21.3055C92.0025 21.3546 92.0755 21.394 92.1436 21.4284C92.2117 21.4629 92.3431 21.5317 92.5279 21.6252C92.7128 21.7187 92.9025 21.8121 93.0874 21.9105L94.8388 22.796C95.8216 23.2929 96.5075 23.7503 96.9065 24.1783C97.6313 24.9113 97.9914 25.8312 97.9914 26.943C97.9914 28.2663 97.5584 29.3977 96.6973 30.3422C95.6951 31.454 94.3134 32.0049 92.562 32.0049C91.2533 32.0049 90.1927 31.6852 89.3754 31.0506C88.4851 30.3914 87.8575 29.4813 87.4829 28.3253L90.2852 26.9774C90.5187 27.6612 90.7863 28.1334 91.0928 28.3942C91.4674 28.7729 91.9685 28.9599 92.6009 28.9599C93.2334 28.9599 93.6761 28.7926 94.002 28.463C94.328 28.1334 94.4934 27.7448 94.4934 27.2922C94.4934 26.8692 94.3426 26.4904 94.0361 26.1608C93.7101 25.8312 93.2188 25.5213 92.5669 25.2409L91.3068 24.6407C90.3241 24.1685 89.6478 23.7454 89.2732 23.3666C88.5727 22.6829 88.2224 21.8417 88.2224 20.8529C88.2224 19.6034 88.6311 18.5408 89.4484 17.6652C90.3338 16.7207 91.5355 16.2484 93.0582 16.2484C94.1091 16.2484 95.0188 16.5091 95.7924 17.0257C96.4929 17.4733 97.0524 18.0882 97.4757 18.8655L97.4708 18.8606Z" fill="black"></path><path d="M123.747 16.6321H120.312V31.4835H123.747V16.6321Z" fill="black"></path><path d="M59.7814 16.6961H56.3467V31.5474H59.7814V16.6961Z" fill="black"></path><path d="M40.6765 8.84981H37.271V31.4786H40.6765V8.84981Z" fill="black"></path><path d="M108.699 31.9902C104.272 31.9902 100.672 28.3499 100.672 23.8733C100.672 19.3968 104.272 15.7565 108.699 15.7565C113.126 15.7565 116.726 19.3968 116.726 23.8733C116.726 28.3499 113.126 31.9902 108.699 31.9902ZM108.699 19.2C106.15 19.2 104.077 21.2956 104.077 23.8733C104.077 26.451 106.15 28.5467 108.699 28.5467C111.248 28.5467 113.321 26.451 113.321 23.8733C113.321 21.2956 111.248 19.2 108.699 19.2Z" fill="black"></path><path d="M133 31.4786H129.595V22.2795C129.595 20.784 128.393 19.5689 126.914 19.5689C125.158 19.5689 123.732 21.0152 123.732 22.7862V23.893H122.759V22.7862C122.759 19.1115 123.28 16.1254 126.914 16.1254C130.271 16.1254 133 18.8852 133 22.2795V31.4786Z" fill="black"></path><path d="M51.1706 15.7663C46.9964 15.7663 43.6055 19.4066 43.6055 23.8832C43.6055 28.3597 47.0013 32 51.1706 32C56.5172 32 58.7357 26.9823 58.7357 23.8832C58.7357 20.5922 56.0307 15.7663 51.1706 15.7663ZM51.6522 28.8074C49.0786 28.8074 46.9915 26.6035 46.9915 23.8832C46.9915 21.1628 49.0786 18.959 51.6522 18.959C54.2258 18.959 56.3129 21.1628 56.3129 23.8832C56.3129 26.6035 54.2258 28.8074 51.6522 28.8074Z" fill="black"></path></g></g><defs><clipPath id="clip0_490_2541"><rect width="134" height="32" fill="white"></rect></clipPath><clipPath id="clip1_490_2541"><rect width="133" height="32" fill="white"></rect></clipPath></defs></svg> 