<?xml version="1.0" encoding="UTF-8" standalone="no"?>
<svg id="Слой_1" xmlns:rdf="http://www.w3.org/1999/02/22-rdf-syntax-ns#" style="enable-background:new 0 0 437.4 80.9" xmlns="http://www.w3.org/2000/svg" xml:space="preserve" version="1.1" y="0px" x="0px" xmlns:cc="http://creativecommons.org/ns#" viewBox="0 0 437.4 80.9" xmlns:dc="http://purl.org/dc/elements/1.1/"><metadata id="metadata109"><rdf:RDF><cc:Work rdf:about=""><dc:format>image/svg+xml</dc:format><dc:type rdf:resource="http://purl.org/dc/dcmitype/StillImage"/><dc:title/></cc:Work></rdf:RDF></metadata>
<style id="style2" type="text/css">
	.st0{fill:none;}
	.st1{fill:#2168DE;}
</style>
<rect id="rect4" width="18" y="30.9" x="32" height="19.1" class="st0"/>
<polygon id="polygon6" points="50 20.9 50 10 10 10 10 50 22 50 22 20.9" class="st0"/>
<polygon id="polygon8" points="32 60 32 70.9 72 70.9 72 30.9 60 30.9 60 60" class="st0"/>
<polygon id="polygon10" points="10 50 10 10 50 10 50 20.9 60 20.9 60 0 0 0 0 60 22 60 22 50"/>
<polygon id="polygon12" points="50 20.9 50 30.9 50 50 32 50 32 60 60 60 60 30.9 60 20.9"/>
<polygon id="polygon14" points="60 20.9 60 30.9 72 30.9 72 70.9 32 70.9 32 60 32 50 32 30.9 50 30.9 50 20.9 22 20.9 22 50 22 60 22 80.9 82 80.9 82 20.9" class="st1"/>
<g id="g44" transform="matrix(.99125 0 0 1 .86243 0)">
	<path id="path16" d="m124.7 20.4h-0.1l-7.2 20h-3.6l-7.2-19.9h-0.1l0.5 11.9v4.2l2.9 0.6v3.2h-11.3v-3.2l2.9-0.6v-19.4l-2.9-0.6v-3.3h10l6.9 19.9h0.1l6.9-19.9h10v3.3l-2.9 0.6v19.4l2.9 0.6v3.2h-11.2v-3.2l2.9-0.6v-4.2z"/>
	<path id="path18" d="m147.3 40.4c-0.1-0.3-0.3-0.7-0.4-1-0.1-0.4-0.2-0.7-0.3-1.1-0.6 0.7-1.4 1.3-2.3 1.8s-2 0.7-3.2 0.7c-2 0-3.5-0.5-4.7-1.6s-1.7-2.5-1.7-4.4 0.8-3.3 2.3-4.4c1.5-1 3.7-1.5 6.6-1.5h2.8v-2c0-1-0.3-1.7-0.8-2.2-0.6-0.5-1.4-0.8-2.5-0.8-0.6 0-1.2 0.1-1.7 0.2s-0.9 0.3-1.2 0.5l-0.4 2.2h-4.1v-4.5c1-0.7 2.1-1.2 3.4-1.7s2.7-0.7 4.2-0.7c2.5 0 4.5 0.6 6.1 1.8s2.3 3 2.3 5.2v8.3 0.9c0 0.3 0 0.5 0.1 0.8l1.7 0.2v3.2h-6.2zm-4.7-3.6c0.8 0 1.6-0.2 2.2-0.5 0.7-0.4 1.2-0.8 1.6-1.3v-3.1h-2.8c-1.2 0-2 0.3-2.6 0.8s-0.9 1.2-0.9 1.9 0.2 1.2 0.7 1.6c0.4 0.4 1.1 0.6 1.8 0.6z"/>
	<path id="path20" d="m164.8 36.7c1 0 1.7-0.3 2.3-0.8 0.6-0.6 0.9-1.3 0.9-2.3h4.9l0.1 0.1c0 2-0.7 3.7-2.3 5.1s-3.5 2-5.9 2c-3 0-5.3-0.9-6.9-2.8s-2.4-4.3-2.4-7.3v-0.6c0-3 0.8-5.4 2.5-7.3s4-2.9 7.1-2.9c1.6 0 3.1 0.2 4.4 0.7s2.4 1.2 3.2 2l0.1 5.4h-4.4l-0.9-3.1c-0.3-0.2-0.6-0.4-1-0.6s-0.8-0.2-1.4-0.2c-1.5 0-2.6 0.6-3.2 1.7s-0.9 2.5-0.9 4.3v0.6c0 1.8 0.3 3.2 0.9 4.3 0.5 1.1 1.5 1.7 2.9 1.7z"/>
	<path id="path22" d="m196.3 20.4v6.8h-4.2l-0.2-2.7h-3.4v12.1l2.9 0.6v3.2h-11.2v-3.2l2.9-0.6v-12.1h-3.4l-0.2 2.7h-4.2v-6.8z"/>
	<path id="path24" d="m206.9 40.8c-2.9 0-5.2-0.9-6.9-2.8s-2.6-4.2-2.6-7.1v-0.7c0-3 0.8-5.4 2.5-7.4 1.6-1.9 3.8-2.9 6.6-2.9 2.7 0 4.8 0.8 6.3 2.4s2.2 3.8 2.2 6.6v3h-12v0.1c0.1 1.3 0.5 2.4 1.3 3.3s1.9 1.3 3.2 1.3c1.2 0 2.2-0.1 3-0.4 0.8-0.2 1.7-0.6 2.6-1.1l1.5 3.3c-0.8 0.7-1.9 1.2-3.2 1.7-1.4 0.5-2.9 0.7-4.5 0.7zm-0.5-16.6c-1 0-1.8 0.4-2.4 1.2s-0.9 1.8-1.1 3l0.1 0.1h6.6v-0.5c0-1.2-0.3-2.1-0.8-2.8s-1.3-1-2.4-1z"/>
	<path id="path26" d="m217.1 23.6v-3.3h7.9l0.3 2.3c0.6-0.9 1.3-1.5 2.1-2s1.8-0.7 2.9-0.7c2.5 0 4.4 1 5.8 2.9s2.1 4.5 2.1 7.7v0.5c0 3-0.7 5.4-2.1 7.2s-3.3 2.7-5.8 2.7c-1.1 0-2-0.2-2.8-0.6s-1.5-1-2.1-1.7v5.8l2.6 0.6v3.3h-10.6v-3.3l2.6-0.6v-20.2zm15.6 7c0-1.9-0.3-3.4-0.9-4.6s-1.6-1.8-2.9-1.8c-0.8 0-1.5 0.2-2.1 0.5s-1 0.8-1.4 1.4v8.8c0.3 0.6 0.8 1 1.4 1.3s1.3 0.4 2.1 0.4c1.3 0 2.3-0.5 2.9-1.5s0.9-2.4 0.9-4.2z"/>
	<path id="path28" d="m253.4 40.4c-0.1-0.3-0.3-0.7-0.4-1-0.1-0.4-0.2-0.7-0.3-1.1-0.6 0.7-1.4 1.3-2.3 1.8s-2 0.7-3.2 0.7c-2 0-3.5-0.5-4.7-1.6s-1.7-2.5-1.7-4.4 0.8-3.3 2.3-4.4c1.5-1 3.7-1.5 6.6-1.5h2.8v-2c0-1-0.3-1.7-0.8-2.2-0.6-0.5-1.4-0.8-2.5-0.8-0.6 0-1.2 0.1-1.7 0.2s-0.9 0.3-1.2 0.5l-0.4 2.2h-4.1v-4.5c1-0.7 2.1-1.2 3.4-1.7s2.7-0.7 4.2-0.7c2.5 0 4.5 0.6 6.1 1.8s2.3 3 2.3 5.2v8.3 0.9c0 0.3 0 0.5 0.1 0.8l1.7 0.2v3.2h-6.2zm-4.7-3.6c0.8 0 1.6-0.2 2.2-0.5 0.7-0.4 1.2-0.8 1.6-1.3v-3.1h-2.8c-1.2 0-2 0.3-2.6 0.8s-0.9 1.2-0.9 1.9 0.2 1.2 0.7 1.6c0.4 0.4 1 0.6 1.8 0.6z"/>
	<path id="path30" d="m283.5 13.4c3.1 0 5.5 0.8 7.3 2.4s2.7 3.7 2.7 6.2c0 2.6-0.9 4.7-2.7 6.2-1.8 1.6-4.2 2.4-7.3 2.4h-4.6v6l2.9 0.6v3.2h-11.2v-3.2l2.9-0.6v-19.4l-2.9-0.6v-3.3h12.9zm-4.6 13.1h4.6c1.5 0 2.7-0.4 3.4-1.2 0.8-0.8 1.2-1.9 1.2-3.1 0-1.3-0.4-2.4-1.2-3.2s-1.9-1.3-3.4-1.3h-4.6z"/>
	<path id="path32" d="m304.7 40.8c-2.9 0-5.2-0.9-6.9-2.8s-2.6-4.2-2.6-7.1v-0.7c0-3 0.8-5.4 2.5-7.4 1.6-1.9 3.8-2.9 6.6-2.9 2.7 0 4.8 0.8 6.3 2.4s2.2 3.8 2.2 6.6v3h-12v0.1c0.1 1.3 0.5 2.4 1.3 3.3s1.9 1.3 3.2 1.3c1.2 0 2.2-0.1 3-0.4 0.8-0.2 1.7-0.6 2.6-1.1l1.5 3.3c-0.8 0.7-1.9 1.2-3.2 1.7-1.4 0.5-2.9 0.7-4.5 0.7zm-0.5-16.6c-1 0-1.8 0.4-2.4 1.2s-0.9 1.8-1.1 3l0.1 0.1h6.6v-0.5c0-1.2-0.3-2.1-0.8-2.8s-1.3-1-2.4-1z"/>
	<path id="path34" d="m330.6 34.1h0.1l5.2-13.8h9.7v3.3l-2.9 0.6v12.5l2.9 0.6v3.2h-10.3v-3.2l2-0.6v-8.1h-0.1l-4.7 12h-3.6l-4.5-11.7h-0.1v7.9l2.1 0.6v3.2h-10.4v-3.2l2.9-0.6v-12.6l-2.9-0.6v-3.3h9.6z"/>
	<path id="path36" d="m348.1 30.2c0-3 0.8-5.4 2.5-7.4 1.7-1.9 4-2.9 6.9-2.9 3 0 5.3 1 7 2.9s2.5 4.4 2.5 7.4v0.4c0 3-0.8 5.5-2.5 7.4s-4 2.8-6.9 2.8c-3 0-5.3-0.9-7-2.8s-2.5-4.4-2.5-7.4zm5.4 0.4c0 1.8 0.3 3.3 1 4.4 0.6 1.1 1.7 1.7 3.1 1.7s2.4-0.6 3.1-1.7c0.6-1.1 1-2.6 1-4.4v-0.4c0-1.8-0.3-3.2-1-4.4-0.7-1.1-1.7-1.7-3.1-1.7s-2.4 0.6-3.1 1.7c-0.6 1.1-1 2.6-1 4.4z"/>
	<path id="path38" d="m369.8 23.6v-3.3h10.6v3.3l-2.3 0.6v4.3h6.6v-4.3l-2.3-0.6v-3.3h10.6v3.3l-2.9 0.6v12.5l2.9 0.6v3.2h-10.6v-3.2l2.3-0.6v-4h-6.6v4l2.3 0.6v3.2h-10.6v-3.2l2.9-0.6v-12.5z"/>
	<path id="path40" d="m416.4 20.4v6.8h-4.2l-0.2-2.7h-3.4v12.1l2.9 0.6v3.2h-11.2v-3.2l2.9-0.6v-12.1h-3.4l-0.2 2.7h-4.2v-6.8z"/>
	<path id="path42" d="m431.2 40.4c-0.1-0.3-0.3-0.7-0.4-1-0.1-0.4-0.2-0.7-0.3-1.1-0.6 0.7-1.4 1.3-2.3 1.8s-2 0.7-3.2 0.7c-2 0-3.5-0.5-4.7-1.6s-1.7-2.5-1.7-4.4 0.8-3.3 2.3-4.4c1.5-1 3.7-1.5 6.6-1.5h2.8v-2c0-1-0.3-1.7-0.8-2.2-0.6-0.5-1.4-0.8-2.5-0.8-0.6 0-1.2 0.1-1.7 0.2s-0.9 0.3-1.2 0.5l-0.4 2.2h-4.1v-4.5c1-0.7 2.1-1.2 3.4-1.7s2.7-0.7 4.2-0.7c2.5 0 4.5 0.6 6.1 1.8s2.3 3 2.3 5.2v8.3 0.9c0 0.3 0 0.5 0.1 0.8l1.7 0.2v3.2h-6.2zm-4.7-3.6c0.8 0 1.6-0.2 2.2-0.5 0.7-0.4 1.2-0.8 1.6-1.3v-3.1h-2.8c-1.2 0-2 0.3-2.6 0.8s-0.9 1.2-0.9 1.9 0.2 1.2 0.7 1.6c0.4 0.4 1 0.6 1.8 0.6z"/>
</g>
<g id="g102" transform="matrix(.98779 0 0 1 1.2164 0)">
	<path id="path46" d="m108.3 59.6c0 1.4-0.5 2.5-1.4 3.3-1 0.8-2.3 1.1-4.1 1.1h-1.6v5.5h-1.6v-14h3.6c3.4 0 5.1 1.3 5.1 4.1zm-7.2 3h1.5c1.4 0 2.5-0.2 3.1-0.7s1-1.2 1-2.2c0-0.9-0.3-1.6-0.9-2.1s-1.5-0.7-2.8-0.7h-1.8v5.7z"/>
	<path id="path48" d="m115.4 69.6c-1.5 0-2.8-0.5-3.7-1.4s-1.3-2.2-1.3-3.9 0.4-3 1.2-4 1.9-1.5 3.3-1.5c1.3 0 2.3 0.4 3.1 1.3s1.1 2 1.1 3.4v1h-7.2c0 1.2 0.3 2.2 0.9 2.8s1.4 1 2.5 1 2.2-0.2 3.3-0.7v1.4c-0.6 0.2-1.1 0.4-1.6 0.5s-0.9 0.1-1.6 0.1zm-0.4-9.5c-0.8 0-1.5 0.3-2 0.8s-0.8 1.3-0.9 2.3h5.5c0-1-0.2-1.8-0.7-2.3s-1.1-0.8-1.9-0.8z"/>
	<path id="path50" d="m127.4 67.9 0.3-0.9 0.4-1.1 2.8-6.9h2v10.4h-1.4v-8.6l-0.2 0.6-0.6 1.5-2.7 6.6h-1.3l-2.7-6.6c-0.3-0.9-0.6-1.5-0.7-2v8.6h-1.4v-10.5h1.9l2.7 6.6c0.4 0.7 0.6 1.5 0.9 2.3z"/>
	<path id="path52" d="m145.3 64.2c0 1.7-0.4 3-1.3 4s-2 1.4-3.6 1.4c-0.9 0-1.8-0.2-2.5-0.7-0.7-0.4-1.3-1.1-1.7-1.9s-0.6-1.8-0.6-2.9c0-1.7 0.4-3 1.3-4 0.9-0.9 2-1.4 3.5-1.4s2.6 0.5 3.5 1.5 1.4 2.3 1.4 4zm-8 0c0 1.3 0.3 2.3 0.8 3s1.3 1 2.4 1c1 0 1.8-0.3 2.4-1 0.5-0.7 0.8-1.7 0.8-3.1 0-1.3-0.3-2.3-0.8-3s-1.3-1-2.4-1c-1 0-1.8 0.3-2.3 1-0.6 0.7-0.9 1.7-0.9 3.1z"/>
	<path id="path54" d="m149.6 59v4.4h5.8v-4.4h1.6v10.4h-1.6v-4.7h-5.8v4.7h-1.6v-10.4z"/>
	<path id="path56" d="m167.4 60.3h-3.4v9.1h-1.6v-9.1h-3.4v-1.3h8.3v1.3z"/>
	<path id="path58" d="m180.7 59h1.7l-4.5 5 4.9 5.4h-1.8l-4.8-5.3v5.3h-1.6v-10.4h1.6v5.1z"/>
	<path id="path60" d="m193.2 61.6c0 0.7-0.2 1.2-0.6 1.5-0.4 0.4-0.9 0.6-1.6 0.7v0.1c0.9 0.1 1.5 0.4 1.9 0.8s0.6 1 0.6 1.7c0 1-0.4 1.7-1.1 2.2s-1.8 0.8-3.1 0.8h-4.6v-10.4h4.6c2.6 0 3.9 0.9 3.9 2.6zm-1.6 0.2c0-0.5-0.2-0.9-0.6-1.1s-1-0.3-1.8-0.3h-3v2.9h2.7c1 0 1.7-0.1 2.1-0.4s0.6-0.6 0.6-1.1zm0.3 4.5c0-0.6-0.2-1-0.6-1.2-0.4-0.3-1.1-0.4-2.1-0.4h-2.9v3.4h2.9c1.8 0 2.7-0.6 2.7-1.8z"/>
	<path id="path62" d="m202.2 69.4-0.3-1.5h-0.1c-0.5 0.7-1 1.1-1.6 1.3-0.5 0.2-1.2 0.3-1.9 0.3-1 0-1.8-0.3-2.4-0.8s-0.9-1.3-0.9-2.3c0-2.1 1.7-3.2 5.1-3.3l1.8-0.1v-0.6c0-0.8-0.2-1.4-0.5-1.8s-0.9-0.6-1.7-0.6c-0.9 0-1.9 0.3-3 0.8l-0.5-1.2c0.5-0.3 1.1-0.5 1.7-0.7s1.2-0.2 1.8-0.2c1.2 0 2.2 0.3 2.8 0.8 0.6 0.6 0.9 1.4 0.9 2.7v7.1h-1.2zm-3.6-1.1c1 0 1.8-0.3 2.3-0.8 0.6-0.5 0.8-1.3 0.8-2.3v-0.9l-1.6 0.1c-1.3 0-2.2 0.2-2.7 0.6-0.6 0.3-0.8 0.9-0.8 1.6 0 0.6 0.2 1 0.5 1.3 0.4 0.3 0.9 0.4 1.5 0.4z"/>
	<path id="path64" d="m211.5 69.6c-0.7 0-1.3-0.1-1.9-0.4s-1-0.6-1.4-1.2h-0.1c0.1 0.6 0.1 1.2 0.1 1.7v4.3h-1.6v-15h1.3l0.2 1.4h0.1c0.4-0.6 0.9-1 1.4-1.2 0.5-0.3 1.2-0.4 1.9-0.4 1.4 0 2.5 0.5 3.2 1.4 0.8 0.9 1.1 2.3 1.1 4s-0.4 3-1.1 4c-0.8 0.9-1.9 1.4-3.2 1.4zm-0.2-9.5c-1.1 0-1.8 0.3-2.3 0.9s-0.7 1.5-0.7 2.8v0.4c0 1.5 0.2 2.5 0.7 3.1s1.3 0.9 2.4 0.9c0.9 0 1.6-0.4 2.1-1.1s0.8-1.7 0.8-3-0.3-2.3-0.8-3c-0.6-0.6-1.3-1-2.2-1z"/>
	<path id="path66" d="m225.6 60.3h-3.4v9.1h-1.6v-9.1h-3.4v-1.3h8.3v1.3z"/>
	<path id="path68" d="m229.2 59v6.6l-0.1 1.7v0.5l5.6-8.9h2v10.4h-1.5v-8.8l-5.6 8.9h-2v-10.4z"/>
	<path id="path70" d="m244.9 69.6c-0.7 0-1.3-0.1-1.9-0.4s-1-0.6-1.4-1.2h-0.1c0.1 0.6 0.1 1.2 0.1 1.7v4.3h-1.6v-15h1.3l0.2 1.4h0.1c0.4-0.6 0.9-1 1.4-1.2 0.5-0.3 1.2-0.4 1.9-0.4 1.4 0 2.5 0.5 3.2 1.4 0.8 0.9 1.1 2.3 1.1 4s-0.4 3-1.1 4c-0.8 0.9-1.8 1.4-3.2 1.4zm-0.2-9.5c-1.1 0-1.8 0.3-2.3 0.9s-0.7 1.5-0.7 2.8v0.4c0 1.5 0.2 2.5 0.7 3.1s1.3 0.9 2.4 0.9c0.9 0 1.6-0.4 2.1-1.1s0.8-1.7 0.8-3-0.3-2.3-0.8-3c-0.6-0.6-1.3-1-2.2-1z"/>
	<path id="path72" d="m265.5 61.6c0 0.7-0.2 1.2-0.6 1.5-0.4 0.4-0.9 0.6-1.6 0.7v0.1c0.9 0.1 1.5 0.4 1.9 0.8s0.6 1 0.6 1.7c0 1-0.4 1.7-1.1 2.2s-1.8 0.8-3.1 0.8h-4.6v-10.4h4.6c2.6 0 3.9 0.9 3.9 2.6zm-1.5 0.2c0-0.5-0.2-0.9-0.6-1.1s-1-0.3-1.8-0.3h-3v2.9h2.7c1 0 1.7-0.1 2.1-0.4s0.6-0.6 0.6-1.1zm0.3 4.5c0-0.6-0.2-1-0.6-1.2-0.4-0.3-1.1-0.4-2.1-0.4h-2.9v3.4h2.9c1.8 0 2.7-0.6 2.7-1.8z"/>
	<path id="path74" d="m279.6 69.4-4.7-12.3h-0.1c0.1 1 0.1 2.1 0.1 3.5v8.9h-1.5v-14h2.4l4.4 11.5h0.1l4.4-11.5h2.4v13.9h-1.6v-9c0-1 0-2.1 0.1-3.4h-0.1l-4.8 12.3h-1.1z"/>
	<path id="path76" d="m299.8 64.2c0 1.7-0.4 3-1.3 4s-2 1.4-3.6 1.4c-0.9 0-1.8-0.2-2.5-0.7-0.7-0.4-1.3-1.1-1.7-1.9s-0.6-1.8-0.6-2.9c0-1.7 0.4-3 1.3-4 0.9-0.9 2-1.4 3.5-1.4s2.6 0.5 3.5 1.5c1 1 1.4 2.3 1.4 4zm-7.9 0c0 1.3 0.3 2.3 0.8 3s1.3 1 2.4 1c1 0 1.8-0.3 2.4-1 0.5-0.7 0.8-1.7 0.8-3.1 0-1.3-0.3-2.3-0.8-3s-1.3-1-2.4-1c-1 0-1.8 0.3-2.3 1-0.7 0.7-0.9 1.7-0.9 3.1z"/>
	<path id="path78" d="m306.8 69.6c-1.5 0-2.7-0.5-3.5-1.4s-1.2-2.2-1.2-3.9 0.4-3.1 1.3-4c0.8-1 2-1.4 3.6-1.4 0.5 0 1 0.1 1.5 0.2s0.9 0.2 1.2 0.4l-0.5 1.3c-0.3-0.1-0.7-0.3-1.1-0.3-0.4-0.1-0.8-0.1-1.1-0.1-2.1 0-3.2 1.4-3.2 4.1 0 1.3 0.3 2.3 0.8 3s1.3 1 2.3 1c0.9 0 1.8-0.2 2.7-0.6v1.4c-0.9 0.1-1.8 0.3-2.8 0.3z"/>
	<path id="path80" d="m318 59h1.7l-4.5 5 4.9 5.4h-1.8l-4.8-5.3v5.3h-1.6v-10.4h1.6v5.1z"/>
	<path id="path82" d="m330.5 61.6c0 0.7-0.2 1.2-0.6 1.5-0.4 0.4-0.9 0.6-1.6 0.7v0.1c0.9 0.1 1.5 0.4 1.9 0.8s0.6 1 0.6 1.7c0 1-0.4 1.7-1.1 2.2s-1.8 0.8-3.1 0.8h-4.6v-10.4h4.6c2.6 0 3.9 0.9 3.9 2.6zm-1.6 0.2c0-0.5-0.2-0.9-0.6-1.1s-1-0.3-1.8-0.3h-3v2.9h2.7c1 0 1.7-0.1 2.1-0.4s0.6-0.6 0.6-1.1zm0.3 4.5c0-0.6-0.2-1-0.6-1.2-0.4-0.3-1.1-0.4-2.1-0.4h-2.9v3.4h2.9c1.8 0 2.7-0.6 2.7-1.8z"/>
	<path id="path84" d="m337.5 69.6c-1.5 0-2.8-0.5-3.7-1.4s-1.3-2.2-1.3-3.9 0.4-3 1.2-4 1.9-1.5 3.3-1.5c1.3 0 2.3 0.4 3.1 1.3s1.1 2 1.1 3.4v1h-7.2c0 1.2 0.3 2.2 0.9 2.8s1.4 1 2.5 1 2.2-0.2 3.3-0.7v1.4c-0.6 0.2-1.1 0.4-1.6 0.5s-0.9 0.1-1.6 0.1zm-0.4-9.5c-0.8 0-1.5 0.3-2 0.8s-0.8 1.3-0.9 2.3h5.5c0-1-0.2-1.8-0.7-2.3s-1.1-0.8-1.9-0.8z"/>
	<path id="path86" d="m350.6 59v6.6l-0.1 1.7v0.5l5.6-8.9h2v10.4h-1.5v-8.8l-5.6 8.9h-2v-10.4z"/>
	<path id="path88" d="m375.5 64.2c0 1.7-0.4 3-1.3 4s-2 1.4-3.6 1.4c-0.9 0-1.8-0.2-2.5-0.7-0.7-0.4-1.3-1.1-1.7-1.9s-0.6-1.8-0.6-2.9c0-1.7 0.4-3 1.3-4 0.9-0.9 2-1.4 3.5-1.4s2.6 0.5 3.5 1.5c1 1 1.4 2.3 1.4 4zm-7.9 0c0 1.3 0.3 2.3 0.8 3s1.3 1 2.4 1c1 0 1.8-0.3 2.4-1 0.5-0.7 0.8-1.7 0.8-3.1 0-1.3-0.3-2.3-0.8-3s-1.3-1-2.4-1c-1 0-1.8 0.3-2.3 1-0.7 0.7-0.9 1.7-0.9 3.1z"/>
	<path id="path90" d="m377.8 63.2c0-2.3 0.3-4.1 1-5.3 0.7-1.3 1.7-2.1 3.2-2.4 1.8-0.4 3.4-0.7 4.8-0.9l0.3 1.4c-2.2 0.4-3.8 0.7-4.7 0.9s-1.6 0.7-2.1 1.5-0.7 1.8-0.8 3.2h0.1c0.4-0.5 0.9-1 1.5-1.3s1.3-0.5 2-0.5c1.3 0 2.3 0.4 3 1.2s1.1 2 1.1 3.5c0 1.6-0.4 2.9-1.2 3.8s-2 1.4-3.5 1.4-2.6-0.6-3.4-1.7c-0.9-1.2-1.3-2.8-1.3-4.8zm4.8 5.1c1.9 0 2.9-1.2 2.9-3.7 0-2.4-0.9-3.5-2.6-3.5-0.5 0-0.9 0.1-1.4 0.3s-0.9 0.5-1.2 0.8-0.7 0.7-0.9 1c0 1.7 0.3 2.9 0.8 3.8 0.5 0.8 1.3 1.3 2.4 1.3z"/>
	<path id="path92" d="m397.7 69.4h-1.6v-9.1h-3.1c-0.2 2.3-0.4 4.1-0.7 5.4s-0.7 2.3-1.2 2.9-1.1 0.9-1.9 0.9c-0.3 0-0.6 0-0.8-0.1v-1.2c0.1 0 0.3 0.1 0.5 0.1 0.7 0 1.3-0.8 1.7-2.3s0.8-3.9 1-7h6.1v10.4z"/>
	<path id="path94" d="m407.5 69.4-0.3-1.5h-0.1c-0.5 0.7-1 1.1-1.6 1.3-0.5 0.2-1.2 0.3-1.9 0.3-1 0-1.8-0.3-2.4-0.8s-0.9-1.3-0.9-2.3c0-2.1 1.7-3.2 5.1-3.3l1.8-0.1v-0.6c0-0.8-0.2-1.4-0.5-1.8s-0.9-0.6-1.7-0.6c-0.9 0-1.9 0.3-3 0.8l-0.5-1.2c0.5-0.3 1.1-0.5 1.7-0.7s1.2-0.2 1.8-0.2c1.2 0 2.2 0.3 2.8 0.8 0.6 0.6 0.9 1.4 0.9 2.7v7.1h-1.2zm-3.6-1.1c1 0 1.8-0.3 2.3-0.8 0.6-0.5 0.8-1.3 0.8-2.3v-0.9l-1.6 0.1c-1.3 0-2.2 0.2-2.7 0.6-0.6 0.3-0.8 0.9-0.8 1.6 0 0.6 0.2 1 0.5 1.3 0.4 0.3 0.9 0.4 1.5 0.4z"/>
	<path id="path96" d="m416.1 69.6c-1.5 0-2.7-0.5-3.5-1.4s-1.2-2.2-1.2-3.9 0.4-3.1 1.3-4c0.8-1 2-1.4 3.6-1.4 0.5 0 1 0.1 1.5 0.2s0.9 0.2 1.2 0.4l-0.5 1.3c-0.3-0.1-0.7-0.3-1.1-0.3-0.4-0.1-0.8-0.1-1.1-0.1-2.1 0-3.2 1.4-3.2 4.1 0 1.3 0.3 2.3 0.8 3s1.3 1 2.3 1c0.9 0 1.8-0.2 2.7-0.6v1.4c-0.9 0.1-1.8 0.3-2.8 0.3z"/>
	<path id="path98" d="m428.2 60.3h-3.4v9.1h-1.6v-9.1h-3.4v-1.3h8.3v1.3z"/>
	<path id="path100" d="m431.8 59v6.6l-0.1 1.7v0.5l5.6-8.9h2v10.4h-1.5v-8.8l-5.6 8.9h-2v-10.4z"/>
</g>
</svg>
